<?xml version="1.0" encoding="utf-8"?>
<!-- Generator: Adobe Illustrator 21.0.0, SVG Export Plug-In . SVG Version: 6.00 Build 0)  -->
<svg version="1.1" id="Layer_1" xmlns="http://www.w3.org/2000/svg" xmlns:xlink="http://www.w3.org/1999/xlink" x="0px" y="0px"
	 viewBox="0 0 612 792" style="enable-background:new 0 0 612 792;" xml:space="preserve">
<style type="text/css">
	.st0{fill:none;}
	.st1{fill:url(#SVGID_1_);}
	.st2{fill:url(#SVGID_2_);}
	.st3{fill:url(#SVGID_3_);}
	.st4{fill:url(#SVGID_4_);}
	.st5{fill:#3F9974;}
	.st6{fill:url(#SVGID_5_);}
	.st7{fill:url(#SVGID_6_);}
	.st8{fill:#FFFFFF;}
</style>
<title>NptLogo@2xxz</title>
<path class="st0" d="M296.7,173.9c-15.4-0.1-27.9,12.2-28,27.6c-0.1,15.4,12.2,27.9,27.6,28s27.9-12.2,28-27.6c0-0.1,0-0.1,0-0.2
	C324.3,186.4,312,174,296.7,173.9z"/>
<path class="st0" d="M296.7,173.9c-15.4-0.1-27.9,12.2-28,27.6c-0.1,15.4,12.2,27.9,27.6,28s27.9-12.2,28-27.6c0-0.1,0-0.1,0-0.2
	C324.3,186.4,312,174,296.7,173.9z"/>
<path class="st0" d="M296.7,173.9c-15.4,0.1-27.7,12.7-27.6,28.1c0,4.8,1.3,9.6,3.8,13.8l45.7-30.9
	C313.3,177.9,305.3,173.9,296.7,173.9z"/>
<path class="st0" d="M363.1,166.6c5.5,5.4,13.3,7.8,20.9,6.4l-3.7-18.1L363.1,166.6z"/>
<path class="st0" d="M296.7,229.5c15.4-0.1,27.7-12.7,27.6-28.1c0-2.6-0.4-5.2-1.2-7.7l-43.7,29.6
	C284.2,227.3,290.3,229.5,296.7,229.5z"/>
<linearGradient id="SVGID_1_" gradientUnits="userSpaceOnUse" x1="245" y1="605.2467" x2="339.71" y2="605.2467" gradientTransform="matrix(1 0 0 -1 0 792)">
	<stop  offset="0" style="stop-color:#009444"/>
	<stop  offset="0.61" style="stop-color:#2BB673"/>
</linearGradient>
<path class="st1" d="M269.1,201.7c-0.2-15.2,12-27.7,27.2-27.8c8.7-0.1,16.9,3.9,22.2,10.9l21.2-14.3c-2-3.2-4.5-6.1-7.2-8.6
	c-2.4-2.2-5-4.2-7.8-6c0-0.1,0-0.2,0.1-0.3c-4-2.5-8.3-4.6-12.8-6.1c-8.7-2.9-17.8-4.4-26.9-4.3H245v77.1c3.4,1.4,6.5,3.6,9.1,6.3
	l18.8-12.7C270.4,211.5,269.1,206.6,269.1,201.7z"/>
<linearGradient id="SVGID_2_" gradientUnits="userSpaceOnUse" x1="244.97" y1="560.545" x2="348.3369" y2="560.545" gradientTransform="matrix(1 0 0 -1 0 792)">
	<stop  offset="0" style="stop-color:#009444"/>
	<stop  offset="0.61" style="stop-color:#2BB673"/>
</linearGradient>
<path class="st2" d="M324.3,201.7c0,15.3-12.3,27.7-27.6,27.8c-6.3,0-12.4-2.2-17.3-6.2l-19.8,13.4c5.9,13.9-0.5,30-14.4,35.9
	c-0.1,0-0.2,0.1-0.2,0.1v10.9h40.1v-29c7.3,1.2,14.7,0.8,21.8-1.1c6.8-1.8,13.3-4.8,19-9c11.7-8.6,19.6-21.6,21.7-36
	c1.1-6.4,1.1-12.9,0-19.3l-0.5-0.1c-0.4-2.5-1-5-1.9-7.4c-0.3-0.8-0.6-1.6-0.9-2.4l-21.2,14.4C323.8,196.3,324.2,199,324.3,201.7z"
	/>
<linearGradient id="SVGID_3_" gradientUnits="userSpaceOnUse" x1="131.68" y1="605.13" x2="234.42" y2="605.13" gradientTransform="matrix(1 0 0 -1 0 792)">
	<stop  offset="0" style="stop-color:#009444"/>
	<stop  offset="0.61" style="stop-color:#2BB673"/>
</linearGradient>
<path class="st3" d="M234.4,220.1v-75h-40.7v54.4l-24.1-54.4h-38v9.3c13.2-3.4,26.7,4.6,30.1,17.9c1.2,4.9,1,10-0.8,14.7l53.5,41.8
	C219.7,223.2,226.9,220.1,234.4,220.1z"/>
<linearGradient id="SVGID_4_" gradientUnits="userSpaceOnUse" x1="131.67" y1="552.55" x2="234.42" y2="552.55" gradientTransform="matrix(1 0 0 -1 0 792)">
	<stop  offset="0" style="stop-color:#009444"/>
	<stop  offset="0.61" style="stop-color:#2BB673"/>
</linearGradient>
<path class="st4" d="M137.8,203.1c-2.1,0-4.1-0.3-6.1-0.8v81.3h37.2v-50l27.3,50h38.2v-8.8c-15.1,0-27.4-12.3-27.4-27.4
	c0-3.5,0.7-7.1,2-10.3l-53.4-41.7C151,200.3,144.5,203.1,137.8,203.1z"/>
<path class="st5" d="M356,149.6c0-1.5,0.1-3,0.4-4.5h-6v18.1l7.2-4.9C356.6,155.5,356,152.5,356,149.6z"/>
<linearGradient id="SVGID_5_" gradientUnits="userSpaceOnUse" x1="393.34" y1="593.615" x2="442.3" y2="593.615" gradientTransform="matrix(1 0 0 -1 0 792)">
	<stop  offset="0" style="stop-color:#009444"/>
	<stop  offset="0.61" style="stop-color:#2BB673"/>
</linearGradient>
<path class="st6" d="M403.2,145.1c1.8,9.2-2.1,18.7-9.8,24l16.8,82.6c1.2-0.2,2.4-0.3,3.6-0.3c0.4,0,0.7,0,1.1,0.1v-66.3h27.5v-40.1
	H403.2z"/>
<linearGradient id="SVGID_6_" gradientUnits="userSpaceOnUse" x1="350.44" y1="566.965" x2="400.74" y2="566.965" gradientTransform="matrix(1 0 0 -1 0 792)">
	<stop  offset="0" style="stop-color:#009444"/>
	<stop  offset="0.61" style="stop-color:#2BB673"/>
</linearGradient>
<path class="st7" d="M379.8,173.4c-6.2,0-12.2-2.4-16.6-6.8l-12.7,8.6v10h24.3v98.4h17.4c-4.2-10.2-0.5-22,8.7-28.1L384,173
	C382.6,173.2,381.2,173.4,379.8,173.4z"/>
<polygon class="st8" points="234.4,256.8 239.4,250.4 232.3,255.2 "/>
<polygon class="st8" points="231.5,255.7 232.3,255.2 229.8,253.3 "/>
<polygon class="st8" points="380.3,154.9 384.5,152.1 383.6,150.7 379.6,151.5 "/>
<circle class="st8" cx="233.6" cy="246.6" r="15.6"/>
<circle class="st8" cx="137.4" cy="176.6" r="15.6"/>
<circle class="st8" cx="415.6" cy="273.5" r="15.6"/>
<circle class="st8" cx="296.3" cy="200.6" r="15.6"/>
<circle class="st8" cx="380.5" cy="147.8" r="15.6"/>
</svg>
