<?xml version="1.0" encoding="iso-8859-1"?>
<!-- Generator: Adobe Illustrator 19.0.0, SVG Export Plug-In . SVG Version: 6.00 Build 0)  -->
<svg version="1.1" id="Layer_1" xmlns="http://www.w3.org/2000/svg" xmlns:xlink="http://www.w3.org/1999/xlink" x="0px" y="0px"
	 viewBox="0 0 512 512" style="enable-background:new 0 0 512 512;" xml:space="preserve">
<g>
	<path style="fill:#607D8B;" d="M34.133,8.533h443.733c14.14,0,25.6,11.46,25.6,25.6v85.333c0,14.14-11.46,25.6-25.6,25.6H34.133
		c-14.14,0-25.6-11.46-25.6-25.6V34.133C8.533,19.994,19.994,8.533,34.133,8.533z"/>
	<path style="fill:#607D8B;" d="M34.133,366.933h443.733c14.14,0,25.6,11.46,25.6,25.6v85.333c0,14.14-11.46,25.6-25.6,25.6H34.133
		c-14.14,0-25.6-11.46-25.6-25.6v-85.333C8.533,378.394,19.994,366.933,34.133,366.933z"/>
	<path style="fill:#607D8B;" d="M34.133,187.733h443.733c14.14,0,25.6,11.46,25.6,25.6v85.333c0,14.14-11.46,25.6-25.6,25.6H34.133
		c-14.14,0-25.6-11.46-25.6-25.6v-85.333C8.533,199.194,19.994,187.733,34.133,187.733z"/>
</g>
<g>
	<path style="fill:#CFD8DC;" d="M34.133,8.533h409.6c14.14,0,25.6,11.46,25.6,25.6v85.333c0,14.14-11.46,25.6-25.6,25.6h-409.6
		c-14.14,0-25.6-11.46-25.6-25.6V34.133C8.533,19.994,19.994,8.533,34.133,8.533z"/>
	<path style="fill:#CFD8DC;" d="M34.133,366.933h409.6c14.14,0,25.6,11.46,25.6,25.6v85.333c0,14.14-11.46,25.6-25.6,25.6h-409.6
		c-14.14,0-25.6-11.46-25.6-25.6v-85.333C8.533,378.394,19.994,366.933,34.133,366.933z"/>
	<path style="fill:#CFD8DC;" d="M34.133,187.733h409.6c14.14,0,25.6,11.46,25.6,25.6v85.333c0,14.14-11.46,25.6-25.6,25.6h-409.6
		c-14.14,0-25.6-11.46-25.6-25.6v-85.333C8.533,199.194,19.994,187.733,34.133,187.733z"/>
</g>
<path d="M477.867,153.6H34.133C15.309,153.6,0,138.291,0,119.467V34.133C0,15.309,15.309,0,34.133,0h443.733
	C496.691,0,512,15.309,512,34.133v85.333C512,138.291,496.691,153.6,477.867,153.6z M34.133,17.067
	c-9.412,0-17.067,7.654-17.067,17.067v85.333c0,9.412,7.654,17.067,17.067,17.067h443.733c9.412,0,17.067-7.654,17.067-17.067
	V34.133c0-9.412-7.654-17.067-17.067-17.067H34.133z"/>
<g>
	<path style="fill:#0377BC;" d="M51.2,42.667h307.2c4.71,0,8.533,3.823,8.533,8.533v51.2c0,4.71-3.823,8.533-8.533,8.533H51.2
		c-4.71,0-8.533-3.823-8.533-8.533V51.2C42.667,46.49,46.49,42.667,51.2,42.667z"/>
	<path style="fill:#0377BC;" d="M51.2,401.067h307.2c4.71,0,8.533,3.823,8.533,8.533v51.2c0,4.71-3.823,8.533-8.533,8.533H51.2
		c-4.71,0-8.533-3.823-8.533-8.533v-51.2C42.667,404.89,46.49,401.067,51.2,401.067z"/>
</g>
<g>
	<path style="fill:#02A9F4;" d="M51.2,42.667h273.067c4.71,0,8.533,3.823,8.533,8.533v51.2c0,4.71-3.823,8.533-8.533,8.533H51.2
		c-4.71,0-8.533-3.823-8.533-8.533V51.2C42.667,46.49,46.49,42.667,51.2,42.667z"/>
	<path style="fill:#02A9F4;" d="M51.2,401.067h273.067c4.71,0,8.533,3.823,8.533,8.533v51.2c0,4.71-3.823,8.533-8.533,8.533H51.2
		c-4.71,0-8.533-3.823-8.533-8.533v-51.2C42.667,404.89,46.49,401.067,51.2,401.067z"/>
</g>
<path d="M358.4,119.467H51.2c-9.412,0-17.067-7.654-17.067-17.067V51.2c0-9.412,7.654-17.067,17.067-17.067h307.2
	c9.412,0,17.067,7.654,17.067,17.067v51.2C375.467,111.812,367.812,119.467,358.4,119.467z M51.2,51.2h-0.009l0.009,51.2h307.2V51.2
	H51.2z"/>
<path d="M401.067,51.2c-2.219,0-4.446-0.939-6.059-2.475c-1.545-1.621-2.475-3.84-2.475-6.059c0-2.219,0.93-4.437,2.475-6.059
	c3.157-3.157,8.96-3.157,12.117,0c1.536,1.621,2.475,3.84,2.475,6.059c0,2.219-0.939,4.437-2.475,6.059
	C405.504,50.261,403.285,51.2,401.067,51.2z"/>
<path d="M435.2,51.2c-2.219,0-4.446-0.939-6.059-2.475c-1.545-1.621-2.475-3.84-2.475-6.059c0-2.219,0.93-4.437,2.475-6.059
	c3.157-3.157,8.96-3.157,12.117,0c1.536,1.621,2.475,3.84,2.475,6.059c0,2.219-0.939,4.437-2.475,6.059
	C439.637,50.261,437.419,51.2,435.2,51.2z"/>
<path d="M469.333,51.2c-2.219,0-4.446-0.939-6.059-2.475c-1.545-1.621-2.475-3.84-2.475-6.059c0-2.219,0.93-4.437,2.475-6.059
	c3.157-3.157,8.96-3.157,12.117,0c1.536,1.621,2.475,3.84,2.475,6.059c0,2.304-0.939,4.437-2.56,6.059
	C473.771,50.261,471.552,51.2,469.333,51.2z"/>
<path d="M401.067,85.333c-2.219,0-4.446-0.939-6.059-2.475c-1.545-1.621-2.475-3.755-2.475-6.059c0-2.304,0.93-4.437,2.475-6.059
	c3.243-3.157,8.875-3.157,12.117,0c1.536,1.621,2.475,3.84,2.475,6.059c0,2.304-0.939,4.437-2.56,6.059
	C405.504,84.395,403.285,85.333,401.067,85.333z"/>
<path d="M435.2,85.333c-2.219,0-4.446-0.939-6.059-2.475c-1.545-1.621-2.475-3.84-2.475-6.059s0.93-4.437,2.475-6.059
	c3.243-3.157,8.875-3.157,12.117,0c1.536,1.621,2.475,3.84,2.475,6.059s-0.939,4.437-2.475,6.059
	C439.637,84.395,437.419,85.333,435.2,85.333z"/>
<path d="M469.333,85.333c-2.313,0-4.446-0.939-6.059-2.475c-1.545-1.621-2.475-3.84-2.475-6.059s0.93-4.437,2.475-6.059
	c3.243-3.157,8.875-3.157,12.117,0c1.536,1.621,2.475,3.84,2.475,6.059s-0.939,4.437-2.475,6.059
	C473.771,84.395,471.552,85.333,469.333,85.333z"/>
<path d="M401.067,119.467c-2.313,0-4.446-0.939-6.059-2.475c-1.545-1.621-2.475-3.84-2.475-6.059c0-2.219,0.93-4.437,2.475-6.059
	c3.157-3.157,8.875-3.157,12.117,0c1.536,1.621,2.475,3.84,2.475,6.059c0,2.219-0.939,4.437-2.475,6.059
	C405.504,118.528,403.285,119.467,401.067,119.467z"/>
<path d="M435.2,119.467c-2.219,0-4.446-0.939-6.059-2.475c-1.545-1.621-2.475-3.755-2.475-6.059c0-2.219,0.93-4.437,2.475-6.059
	c3.157-3.157,8.875-3.157,12.117,0c1.536,1.621,2.475,3.84,2.475,6.059c0,2.304-0.939,4.437-2.475,6.059
	C439.637,118.528,437.419,119.467,435.2,119.467z"/>
<path d="M469.333,119.467c-2.219,0-4.446-0.939-6.059-2.475c-1.545-1.621-2.475-3.84-2.475-6.059c0-2.219,0.93-4.437,2.475-6.059
	c3.157-3.157,8.96-3.157,12.117,0c1.536,1.621,2.475,3.84,2.475,6.059c0,2.304-0.939,4.437-2.56,6.059
	C473.771,118.528,471.552,119.467,469.333,119.467z"/>
<path d="M76.8,85.333c-2.219,0-4.437-0.939-6.059-2.475c-1.536-1.621-2.475-3.84-2.475-6.059s0.939-4.437,2.475-6.059
	c3.157-3.157,8.875-3.157,12.117,0c1.536,1.621,2.475,3.84,2.475,6.059s-0.939,4.437-2.475,6.059
	C81.237,84.395,79.019,85.333,76.8,85.333z"/>
<path d="M170.667,85.333h-59.733c-4.71,0-8.533-3.823-8.533-8.533s3.823-8.533,8.533-8.533h59.733c4.71,0,8.533,3.823,8.533,8.533
	S175.377,85.333,170.667,85.333z"/>
<path d="M477.867,512H34.133C15.309,512,0,496.691,0,477.867v-85.333C0,373.709,15.309,358.4,34.133,358.4h443.733
	c18.825,0,34.133,15.309,34.133,34.133v85.333C512,496.691,496.691,512,477.867,512z M34.133,375.467
	c-9.412,0-17.067,7.654-17.067,17.067v85.333c0,9.412,7.654,17.067,17.067,17.067h443.733c9.412,0,17.067-7.654,17.067-17.067
	v-85.333c0-9.412-7.654-17.067-17.067-17.067H34.133z"/>
<path d="M358.4,477.867H51.2c-9.412,0-17.067-7.654-17.067-17.067v-51.2c0-9.412,7.654-17.067,17.067-17.067h307.2
	c9.412,0,17.067,7.654,17.067,17.067v51.2C375.467,470.212,367.812,477.867,358.4,477.867z M51.2,409.6h-0.009l0.009,51.2h307.2
	v-51.2H51.2z"/>
<path d="M401.067,409.6c-2.219,0-4.446-0.939-6.059-2.475c-1.545-1.621-2.475-3.755-2.475-6.059c0-2.313,0.93-4.446,2.475-6.059
	c3.243-3.157,8.875-3.157,12.117,0c1.536,1.613,2.475,3.84,2.475,6.059s-0.939,4.437-2.475,6.059
	C405.504,408.661,403.285,409.6,401.067,409.6z"/>
<path d="M435.2,409.6c-2.219,0-4.446-0.939-6.059-2.475c-1.545-1.621-2.475-3.755-2.475-6.059c0-2.313,0.93-4.446,2.475-6.059
	c3.157-3.157,8.875-3.157,12.117,0c1.536,1.613,2.475,3.746,2.475,6.059c0,2.219-0.939,4.437-2.475,6.059
	C439.637,408.661,437.419,409.6,435.2,409.6z"/>
<path d="M469.333,409.6c-2.219,0-4.446-0.939-6.059-2.475c-1.545-1.621-2.475-3.84-2.475-6.059s0.93-4.446,2.475-6.059
	c3.243-3.157,8.875-3.157,12.117,0c1.536,1.613,2.475,3.746,2.475,6.059c0,2.219-0.939,4.437-2.475,6.059
	C473.771,408.661,471.552,409.6,469.333,409.6z"/>
<path d="M401.067,443.733c-2.219,0-4.446-0.939-6.059-2.475c-1.545-1.621-2.475-3.84-2.475-6.059c0-2.219,0.93-4.446,2.475-6.059
	c3.157-3.157,8.96-3.157,12.117,0c1.536,1.613,2.475,3.84,2.475,6.059c0,2.219-0.939,4.437-2.475,6.059
	C405.504,442.795,403.285,443.733,401.067,443.733z"/>
<path d="M435.2,443.733c-2.219,0-4.446-0.939-6.059-2.475c-1.545-1.621-2.475-3.755-2.475-6.059c0-2.219,0.93-4.446,2.475-6.059
	c3.157-3.157,8.96-3.157,12.117,0c1.536,1.613,2.475,3.84,2.475,6.059c0,2.219-0.939,4.437-2.475,6.059
	C439.637,442.795,437.419,443.733,435.2,443.733z"/>
<path d="M469.333,443.733c-2.219,0-4.446-0.939-6.059-2.475c-1.545-1.621-2.475-3.84-2.475-6.059c0-2.219,0.93-4.446,2.475-6.059
	c3.157-3.157,8.96-3.157,12.117,0c1.536,1.613,2.475,3.84,2.475,6.059c0,2.304-0.939,4.437-2.475,6.059
	C473.771,442.795,471.552,443.733,469.333,443.733z"/>
<path d="M401.067,477.867c-2.313,0-4.446-0.939-6.059-2.56c-1.545-1.536-2.475-3.669-2.475-5.973c0-2.313,0.93-4.446,2.475-6.059
	c3.157-3.157,8.875-3.157,12.117,0c1.536,1.613,2.475,3.84,2.475,6.059c0,2.219-0.939,4.437-2.475,6.059
	C405.504,476.928,403.285,477.867,401.067,477.867z"/>
<path d="M435.2,477.867c-2.313,0-4.446-0.939-6.059-2.56c-1.545-1.536-2.475-3.755-2.475-5.973c0-2.219,0.93-4.446,2.475-6.059
	c3.157-3.157,8.875-3.157,12.117,0c1.536,1.613,2.475,3.84,2.475,6.059c0,2.219-0.939,4.437-2.475,6.059
	C439.637,476.928,437.504,477.867,435.2,477.867z"/>
<path d="M469.333,477.867c-2.219,0-4.446-0.939-6.059-2.475c-1.545-1.621-2.475-3.84-2.475-6.059c0-2.219,0.93-4.446,2.475-6.059
	c3.243-3.157,8.875-3.157,12.117,0c1.536,1.613,2.475,3.746,2.475,6.059c0,2.219-0.939,4.437-2.475,6.059
	C473.771,476.928,471.552,477.867,469.333,477.867z"/>
<path d="M76.8,443.733c-2.219,0-4.437-0.939-6.059-2.475c-1.536-1.621-2.475-3.84-2.475-6.059c0-2.219,0.939-4.446,2.475-6.059
	c3.157-3.157,8.96-3.157,12.117,0c1.536,1.613,2.475,3.84,2.475,6.059c0,2.219-0.939,4.437-2.475,6.059
	C81.237,442.795,79.019,443.733,76.8,443.733z"/>
<path d="M170.667,443.733h-59.733c-4.71,0-8.533-3.814-8.533-8.533c0-4.719,3.823-8.533,8.533-8.533h59.733
	c4.71,0,8.533,3.814,8.533,8.533C179.2,439.919,175.377,443.733,170.667,443.733z"/>
<path d="M477.867,332.8H34.133C15.309,332.8,0,317.491,0,298.667v-85.333C0,194.509,15.309,179.2,34.133,179.2h443.733
	c18.825,0,34.133,15.309,34.133,34.133v85.333C512,317.491,496.691,332.8,477.867,332.8z M34.133,196.267
	c-9.412,0-17.067,7.654-17.067,17.067v85.333c0,9.412,7.654,17.067,17.067,17.067h443.733c9.412,0,17.067-7.654,17.067-17.067
	v-85.333c0-9.412-7.654-17.067-17.067-17.067H34.133z"/>
<path style="fill:#424242;" d="M51.2,221.867h307.2c4.71,0,8.533,3.823,8.533,8.533v51.2c0,4.71-3.823,8.533-8.533,8.533H51.2
	c-4.71,0-8.533-3.823-8.533-8.533v-51.2C42.667,225.69,46.49,221.867,51.2,221.867z"/>
<path style="fill:#9E9E9E;" d="M51.2,221.867h273.067c4.71,0,8.533,3.823,8.533,8.533v51.2c0,4.71-3.823,8.533-8.533,8.533H51.2
	c-4.71,0-8.533-3.823-8.533-8.533v-51.2C42.667,225.69,46.49,221.867,51.2,221.867z"/>
<path d="M358.4,298.667H51.2c-9.412,0-17.067-7.654-17.067-17.067v-51.2c0-9.412,7.654-17.067,17.067-17.067h307.2
	c9.412,0,17.067,7.654,17.067,17.067v51.2C375.467,291.012,367.812,298.667,358.4,298.667z M51.2,230.4h-0.009l0.009,51.2h307.2
	v-51.2H51.2z"/>
<path d="M401.067,230.4c-2.219,0-4.446-0.939-6.059-2.475c-1.545-1.621-2.475-3.755-2.475-6.059c0-2.304,0.93-4.437,2.475-6.059
	c3.243-3.157,8.875-3.157,12.117,0c1.536,1.621,2.475,3.84,2.475,6.059c0,2.304-0.939,4.437-2.56,6.059
	C405.504,229.461,403.285,230.4,401.067,230.4z"/>
<path d="M435.2,230.4c-2.219,0-4.446-0.939-6.059-2.475c-1.545-1.621-2.475-3.755-2.475-6.059c0-2.219,0.93-4.437,2.475-6.059
	c3.157-3.157,8.875-3.157,12.117,0c1.536,1.621,2.475,3.84,2.475,6.059c0,2.219-0.939,4.437-2.475,6.059
	C439.637,229.461,437.419,230.4,435.2,230.4z"/>
<path d="M469.333,230.4c-2.219,0-4.446-0.939-6.059-2.475c-1.545-1.621-2.475-3.84-2.475-6.059c0-2.219,0.93-4.437,2.475-6.059
	c3.243-3.157,8.875-3.157,12.117,0c1.536,1.621,2.475,3.84,2.475,6.059c0,2.219-0.939,4.437-2.475,6.059
	C473.771,229.461,471.552,230.4,469.333,230.4z"/>
<path d="M401.067,264.533c-2.219,0-4.446-0.939-6.059-2.475c-1.545-1.621-2.475-3.755-2.475-6.059c0-2.219,0.93-4.437,2.475-6.059
	c3.157-3.157,8.875-3.157,12.117,0c1.536,1.621,2.475,3.84,2.475,6.059c0,2.219-0.939,4.437-2.475,6.059
	C405.504,263.595,403.285,264.533,401.067,264.533z"/>
<path d="M435.2,264.533c-2.219,0-4.446-0.939-6.059-2.475c-1.545-1.621-2.475-3.755-2.475-6.059c0-2.304,0.93-4.437,2.475-6.059
	c3.157-3.157,8.875-3.157,12.117,0c1.536,1.621,2.475,3.755,2.475,6.059c0,2.304-0.939,4.437-2.475,6.059
	C439.637,263.595,437.419,264.533,435.2,264.533z"/>
<path d="M469.333,264.533c-2.219,0-4.446-0.939-6.059-2.475c-1.545-1.621-2.475-3.84-2.475-6.059c0-2.219,0.93-4.437,2.475-6.059
	c3.157-3.157,8.875-3.157,12.117,0c1.536,1.621,2.475,3.755,2.475,6.059c0,2.304-0.939,4.437-2.56,6.059
	C473.771,263.595,471.552,264.533,469.333,264.533z"/>
<path d="M401.067,298.667c-2.219,0-4.446-0.939-6.059-2.475c-1.545-1.621-2.475-3.755-2.475-6.059c0-2.313,0.93-4.446,2.475-6.059
	c3.157-3.157,8.96-3.157,12.117,0c1.536,1.613,2.475,3.84,2.475,6.059c0,2.219-0.939,4.437-2.475,6.059
	C405.504,297.728,403.285,298.667,401.067,298.667z"/>
<path d="M435.2,298.667c-2.219,0-4.446-0.939-6.059-2.475c-1.545-1.621-2.475-3.84-2.475-6.059c0-2.313,0.93-4.446,2.475-6.059
	c3.157-3.157,8.96-3.157,12.117,0c1.536,1.613,2.475,3.84,2.475,6.059c0,2.219-0.939,4.437-2.475,6.059
	C439.637,297.728,437.419,298.667,435.2,298.667z"/>
<path d="M469.333,298.667c-2.219,0-4.446-0.939-6.059-2.475c-1.545-1.621-2.475-3.84-2.475-6.059c0-2.219,0.93-4.446,2.475-6.059
	c3.157-3.157,8.96-3.157,12.117,0c1.536,1.613,2.475,3.84,2.475,6.059c0,2.219-0.939,4.437-2.475,6.059
	C473.771,297.728,471.552,298.667,469.333,298.667z"/>
<path d="M42.667,298.667c-2.185,0-4.369-0.836-6.033-2.5c-3.337-3.337-3.337-8.73,0-12.066l68.267-68.267
	c3.337-3.337,8.73-3.337,12.066,0c3.337,3.337,3.337,8.73,0,12.066L48.7,296.166C47.036,297.83,44.851,298.667,42.667,298.667z"/>
<path d="M93.867,298.667c-2.185,0-4.369-0.836-6.033-2.5c-3.337-3.337-3.337-8.73,0-12.066l68.267-68.267
	c3.337-3.337,8.73-3.337,12.066,0c3.337,3.337,3.337,8.73,0,12.066L99.9,296.166C98.236,297.83,96.051,298.667,93.867,298.667z"/>
<path d="M145.067,298.667c-2.185,0-4.369-0.836-6.033-2.5c-3.337-3.337-3.337-8.73,0-12.066l68.267-68.267
	c3.337-3.337,8.73-3.337,12.066,0c3.337,3.337,3.337,8.73,0,12.066L151.1,296.166C149.436,297.83,147.251,298.667,145.067,298.667z"
	/>
<path d="M196.267,298.667c-2.185,0-4.369-0.836-6.033-2.5c-3.337-3.337-3.337-8.73,0-12.066l68.267-68.267
	c3.337-3.337,8.73-3.337,12.066,0c3.337,3.337,3.337,8.73,0,12.066L202.3,296.166C200.636,297.83,198.451,298.667,196.267,298.667z"
	/>
<path d="M247.467,298.667c-2.185,0-4.369-0.836-6.033-2.5c-3.337-3.337-3.337-8.73,0-12.066l68.267-68.267
	c3.337-3.337,8.73-3.337,12.066,0c3.337,3.337,3.337,8.73,0,12.066L253.5,296.166C251.836,297.83,249.651,298.667,247.467,298.667z"
	/>
<path d="M298.667,298.667c-2.185,0-4.369-0.836-6.033-2.5c-3.337-3.337-3.337-8.73,0-12.066l59.733-59.733
	c3.337-3.337,8.73-3.337,12.066,0c3.337,3.337,3.337,8.73,0,12.066L304.7,296.166C303.036,297.83,300.851,298.667,298.667,298.667z"
	/>
<g>
	<rect x="34.133" y="145.067" style="fill:#37474F;" width="443.733" height="42.667"/>
	<rect x="34.133" y="324.267" style="fill:#37474F;" width="443.733" height="42.667"/>
</g>
<g>
	<rect x="34.133" y="145.067" style="fill:#607D8B;" width="409.6" height="42.667"/>
	<rect x="34.133" y="324.267" style="fill:#607D8B;" width="409.6" height="42.667"/>
</g>
<path d="M477.867,196.267H34.133c-4.71,0-8.533-3.823-8.533-8.533v-42.667c0-4.71,3.823-8.533,8.533-8.533h443.733
	c4.719,0,8.533,3.823,8.533,8.533v42.667C486.4,192.444,482.586,196.267,477.867,196.267z M42.667,179.2h426.667v-25.6H42.667V179.2
	z"/>
<path d="M477.867,375.467H34.133c-4.71,0-8.533-3.814-8.533-8.533v-42.667c0-4.719,3.823-8.533,8.533-8.533h443.733
	c4.719,0,8.533,3.814,8.533,8.533v42.667C486.4,371.652,482.586,375.467,477.867,375.467z M42.667,358.4h426.667v-25.6H42.667V358.4
	z"/>
<g>
</g>
<g>
</g>
<g>
</g>
<g>
</g>
<g>
</g>
<g>
</g>
<g>
</g>
<g>
</g>
<g>
</g>
<g>
</g>
<g>
</g>
<g>
</g>
<g>
</g>
<g>
</g>
<g>
</g>
</svg>
