<?xml version="1.0" encoding="iso-8859-1"?>
<!-- Generator: Adobe Illustrator 19.0.0, SVG Export Plug-In . SVG Version: 6.00 Build 0)  -->
<svg version="1.1" id="Layer_1" xmlns="http://www.w3.org/2000/svg" xmlns:xlink="http://www.w3.org/1999/xlink" x="0px" y="0px"
	 viewBox="0 0 512 512" style="enable-background:new 0 0 512 512;" xml:space="preserve">
<path style="fill:#464F5D;" d="M512,154.483V22.069c-0.026-9.737-7.918-17.629-17.655-17.655H17.655
	C7.918,4.44,0.026,12.332,0,22.069v132.414c0.026,9.737,7.918,17.629,17.655,17.655C7.918,172.164,0.026,180.056,0,189.793v132.414
	c0.026,9.737,7.918,17.629,17.655,17.655C7.918,339.889,0.026,347.78,0,357.517v132.414c0.026,9.737,7.918,17.629,17.655,17.655
	h476.69c9.737-0.026,17.629-7.918,17.655-17.655V357.517c-0.026-9.737-7.918-17.629-17.655-17.655
	c9.737-0.026,17.629-7.918,17.655-17.655V189.793c-0.026-9.737-7.918-17.629-17.655-17.655
	C504.082,172.111,511.974,164.22,512,154.483z"/>
<rect x="70.621" y="4.414" style="fill:#7F8C8D;" width="370.759" height="167.724"/>
<g>
	<path style="fill:#2C2F38;" d="M35.31,48.552c-1.156-0.018-2.295-0.256-3.354-0.706c-1.068-0.45-2.057-1.077-2.913-1.854
		c-0.777-0.856-1.404-1.845-1.854-2.913c-0.936-2.136-0.936-4.573,0-6.709c0.424-1.077,1.059-2.074,1.854-2.913
		c2.092-2.057,5.067-2.948,7.945-2.392c0.583,0.088,1.148,0.265,1.677,0.538c0.538,0.177,1.05,0.441,1.501,0.794
		c0.503,0.3,0.98,0.662,1.412,1.059c0.794,0.847,1.43,1.836,1.854,2.913c0.945,2.136,0.945,4.573,0,6.709
		c-0.45,1.068-1.077,2.057-1.854,2.913C39.918,47.651,37.658,48.569,35.31,48.552z"/>
	<path style="fill:#2C2F38;" d="M35.31,145.655c-1.148,0.018-2.286-0.194-3.354-0.618c-1.05-0.512-2.03-1.165-2.913-1.942
		c-0.777-0.856-1.404-1.845-1.854-2.913c-0.459-1.059-0.697-2.198-0.706-3.354c0.018-2.339,0.936-4.582,2.56-6.268
		c2.11-2.083,5.12-2.975,8.033-2.392c0.556,0.097,1.086,0.282,1.589,0.538c0.565,0.194,1.103,0.459,1.589,0.794
		c0.459,0.327,0.9,0.68,1.324,1.059c1.615,1.695,2.525,3.928,2.56,6.268c-0.018,1.156-0.256,2.295-0.706,3.354
		c-0.45,1.068-1.077,2.057-1.854,2.913c-0.856,0.803-1.845,1.457-2.913,1.942C37.597,145.461,36.458,145.673,35.31,145.655z"/>
	<path style="fill:#2C2F38;" d="M476.69,48.552c-2.348,0.018-4.608-0.9-6.268-2.56c-0.777-0.856-1.404-1.845-1.854-2.913
		c-0.494-1.05-0.733-2.198-0.706-3.354c0.009-1.156,0.247-2.295,0.706-3.354c0.803-2.216,2.551-3.964,4.767-4.767
		c2.145-0.892,4.564-0.892,6.709,0c2.216,0.803,3.964,2.551,4.767,4.767c0.45,1.059,0.689,2.198,0.706,3.354
		c0.026,1.156-0.212,2.304-0.706,3.354c-0.45,1.068-1.077,2.057-1.854,2.913c-0.856,0.777-1.845,1.404-2.913,1.854
		C478.985,48.296,477.846,48.534,476.69,48.552z"/>
	<path style="fill:#2C2F38;" d="M476.69,145.655c-1.148,0.018-2.286-0.194-3.354-0.618c-1.051-0.512-2.03-1.165-2.913-1.942
		c-0.777-0.856-1.404-1.845-1.854-2.913c-0.45-1.059-0.689-2.198-0.706-3.354c0.018-2.339,0.936-4.582,2.56-6.268
		c3.434-3.46,9.022-3.487,12.482-0.053c1.686,1.668,2.622,3.946,2.613,6.321c-0.018,1.156-0.256,2.295-0.706,3.354
		c-0.45,1.068-1.077,2.057-1.854,2.913C481.298,144.755,479.038,145.673,476.69,145.655z"/>
</g>
<g>
	<path style="fill:#464F5D;" d="M123.586,110.345c-2.348-0.044-4.599-0.989-6.268-2.648c-1.668-1.615-2.595-3.858-2.56-6.179
		c0.009-1.156,0.247-2.295,0.706-3.354c1.721-4.484,6.753-6.727,11.246-5.005c2.304,0.883,4.122,2.701,5.005,5.005
		c0.945,2.136,0.945,4.573,0,6.709C130.322,108.147,127.135,110.292,123.586,110.345z"/>
	<path style="fill:#464F5D;" d="M150.069,128c-4.829,0.044-8.783-3.831-8.828-8.66c-0.009-1.209,0.23-2.41,0.706-3.513
		c0.45-1.068,1.077-2.057,1.854-2.913c2.56-2.472,6.329-3.196,9.622-1.854c1.095,0.406,2.083,1.042,2.913,1.854
		c0.777,0.856,1.404,1.845,1.854,2.913c0.945,2.136,0.945,4.573,0,6.709c-0.45,1.068-1.077,2.057-1.854,2.913
		C154.677,127.1,152.417,128.018,150.069,128z"/>
	<path style="fill:#464F5D;" d="M123.586,145.655c-1.148,0.018-2.286-0.194-3.354-0.618c-1.068-0.477-2.057-1.13-2.913-1.942
		c-0.777-0.856-1.404-1.845-1.854-2.913c-0.45-1.059-0.689-2.198-0.706-3.354c0-4.873,3.955-8.828,8.828-8.828
		s8.828,3.955,8.828,8.828c-0.018,1.156-0.256,2.295-0.706,3.354c-0.45,1.068-1.077,2.057-1.854,2.913
		C128.194,144.755,125.934,145.673,123.586,145.655z"/>
	<path style="fill:#464F5D;" d="M176.552,110.345c-2.348-0.044-4.599-0.989-6.268-2.648c-1.668-1.615-2.595-3.858-2.56-6.179
		c0.009-1.156,0.247-2.295,0.706-3.354c0.424-1.077,1.059-2.074,1.854-2.913c0.856-0.777,1.845-1.404,2.913-1.854
		c3.293-1.333,7.062-0.609,9.622,1.854c0.794,0.847,1.43,1.836,1.854,2.913c0.45,1.059,0.689,2.198,0.706,3.354
		C185.344,106.381,181.416,110.31,176.552,110.345z"/>
	<path style="fill:#464F5D;" d="M203.034,128c-2.348,0.018-4.608-0.9-6.268-2.56c-0.777-0.856-1.404-1.845-1.854-2.913
		c-0.494-1.05-0.733-2.198-0.706-3.354c0.009-1.156,0.247-2.295,0.706-3.354c0.45-1.068,1.077-2.057,1.854-2.913
		c0.839-0.794,1.827-1.43,2.913-1.854c2.145-0.892,4.564-0.892,6.709,0c1.077,0.424,2.066,1.059,2.913,1.854
		c0.777,0.856,1.404,1.845,1.854,2.913c0.45,1.059,0.689,2.198,0.706,3.354c0.026,1.156-0.212,2.304-0.706,3.354
		c-0.45,1.068-1.077,2.057-1.854,2.913C207.642,127.1,205.383,128.018,203.034,128z"/>
	<path style="fill:#464F5D;" d="M176.552,145.655c-1.148,0.018-2.286-0.194-3.354-0.618c-1.068-0.477-2.057-1.13-2.913-1.942
		c-0.777-0.856-1.404-1.845-1.854-2.913c-0.45-1.059-0.689-2.198-0.706-3.354c0-4.873,3.955-8.828,8.828-8.828
		s8.828,3.955,8.828,8.828c0.009,2.348-0.918,4.599-2.56,6.268c-0.856,0.803-1.845,1.457-2.913,1.942
		C178.838,145.461,177.699,145.673,176.552,145.655z"/>
	<path style="fill:#464F5D;" d="M229.517,110.345c-2.366,0.026-4.634-0.927-6.268-2.648c-0.794-0.812-1.43-1.774-1.854-2.825
		c-0.936-2.136-0.936-4.573,0-6.709c0.45-1.068,1.077-2.057,1.854-2.913c3.513-3.328,9.022-3.328,12.535,0
		c0.794,0.847,1.43,1.836,1.854,2.913c0.45,1.059,0.689,2.198,0.706,3.354C238.31,106.381,234.381,110.31,229.517,110.345z"/>
	<path style="fill:#464F5D;" d="M256,128c-4.829,0.044-8.783-3.831-8.828-8.66c-0.009-1.209,0.23-2.41,0.706-3.513
		c0.424-1.077,1.059-2.074,1.854-2.913c0.83-0.821,1.818-1.448,2.913-1.854c3.293-1.342,7.071-0.618,9.622,1.854
		c0.777,0.856,1.404,1.845,1.854,2.913c0.945,2.136,0.945,4.573,0,6.709c-0.45,1.068-1.077,2.057-1.854,2.913
		C260.608,127.1,258.348,128.018,256,128z"/>
	<path style="fill:#464F5D;" d="M229.517,145.655c-1.148,0.018-2.286-0.194-3.354-0.618c-1.068-0.477-2.057-1.13-2.913-1.942
		c-0.777-0.856-1.404-1.845-1.854-2.913c-0.45-1.059-0.689-2.198-0.706-3.354c0.035-2.339,0.945-4.573,2.56-6.268
		c0.415-0.38,0.865-0.733,1.324-1.059c0.494-0.335,1.024-0.6,1.589-0.794c0.53-0.265,1.095-0.45,1.677-0.538
		c2.878-0.565,5.853,0.327,7.945,2.392c1.624,1.686,2.542,3.928,2.56,6.268c-0.018,1.156-0.256,2.295-0.706,3.354
		c-0.45,1.068-1.077,2.057-1.854,2.913c-0.874,0.777-1.863,1.43-2.913,1.942C231.804,145.461,230.665,145.673,229.517,145.655z"/>
	<path style="fill:#464F5D;" d="M282.483,110.345c-2.366,0.026-4.634-0.927-6.268-2.648c-0.794-0.812-1.43-1.774-1.854-2.825
		c-0.494-1.05-0.733-2.198-0.706-3.354c0.009-1.156,0.247-2.295,0.706-3.354c0.45-1.068,1.077-2.057,1.854-2.913
		c3.513-3.328,9.022-3.328,12.535,0c0.777,0.856,1.404,1.845,1.854,2.913c0.45,1.059,0.689,2.198,0.706,3.354
		C291.275,106.381,287.347,110.31,282.483,110.345z"/>
	<path style="fill:#464F5D;" d="M308.966,128c-1.156,0.026-2.313-0.212-3.354-0.706c-1.068-0.45-2.048-1.077-2.913-1.854
		c-2.525-2.525-3.257-6.338-1.854-9.622c0.803-2.216,2.551-3.964,4.767-4.767c2.145-0.892,4.564-0.892,6.709,0
		c2.216,0.803,3.964,2.551,4.767,4.767c1.898,4.44-0.159,9.578-4.59,11.476C311.375,127.77,310.175,128.009,308.966,128z"/>
	<path style="fill:#464F5D;" d="M282.483,145.655c-1.148,0.018-2.286-0.194-3.354-0.618c-1.068-0.477-2.057-1.13-2.913-1.942
		c-0.777-0.856-1.404-1.845-1.854-2.913c-0.45-1.059-0.689-2.198-0.706-3.354c0-4.873,3.955-8.828,8.828-8.828
		s8.828,3.955,8.828,8.828c-0.018,1.156-0.256,2.295-0.706,3.354c-0.45,1.068-1.077,2.057-1.854,2.913
		c-0.856,0.803-1.845,1.457-2.913,1.942C284.769,145.461,283.63,145.673,282.483,145.655z"/>
	<path style="fill:#464F5D;" d="M335.448,110.345c-2.366,0.026-4.634-0.927-6.268-2.648c-2.525-2.489-3.257-6.276-1.854-9.534
		c0.803-2.216,2.551-3.964,4.767-4.767c2.145-0.892,4.564-0.892,6.709,0c2.216,0.803,3.964,2.551,4.767,4.767
		c1.333,3.266,0.609,7.009-1.854,9.534C340.083,109.418,337.814,110.371,335.448,110.345z"/>
	<path style="fill:#464F5D;" d="M361.931,128c-4.829,0.044-8.783-3.831-8.828-8.66c-0.009-1.209,0.23-2.41,0.706-3.513
		c0.803-2.216,2.551-3.964,4.767-4.767c2.145-0.892,4.564-0.892,6.709,0c1.077,0.424,2.066,1.059,2.913,1.854
		c0.777,0.856,1.404,1.845,1.854,2.913c0.945,2.136,0.945,4.573,0,6.709c-0.45,1.068-1.077,2.057-1.854,2.913
		c-0.856,0.777-1.845,1.404-2.913,1.854C364.235,127.788,363.087,128.026,361.931,128z"/>
	<path style="fill:#464F5D;" d="M335.448,145.655c-1.148,0.018-2.286-0.194-3.354-0.618c-1.068-0.477-2.057-1.13-2.913-1.942
		c-0.777-0.856-1.404-1.845-1.854-2.913c-0.45-1.059-0.689-2.198-0.706-3.354c0.035-2.339,0.945-4.573,2.56-6.268
		c0.415-0.38,0.856-0.733,1.324-1.059c0.494-0.335,1.024-0.6,1.589-0.794c0.503-0.256,1.033-0.433,1.589-0.538
		c2.904-0.574,5.914,0.318,8.033,2.392c1.624,1.686,2.542,3.928,2.56,6.268c-0.018,1.156-0.256,2.295-0.706,3.354
		c-0.45,1.068-1.077,2.057-1.854,2.913c-0.874,0.777-1.863,1.43-2.913,1.942C337.735,145.461,336.596,145.673,335.448,145.655z"/>
	<path style="fill:#464F5D;" d="M388.414,110.345c-2.366,0.026-4.634-0.927-6.268-2.648c-2.525-2.489-3.257-6.276-1.854-9.534
		c0.803-2.216,2.551-3.964,4.767-4.767c2.145-0.892,4.564-0.892,6.709,0c2.216,0.803,3.964,2.551,4.767,4.767
		c0.45,1.059,0.697,2.198,0.706,3.354c0.026,1.156-0.212,2.304-0.706,3.354c-0.433,1.05-1.059,2.013-1.854,2.825
		C393.048,109.418,390.78,110.371,388.414,110.345z"/>
	<path style="fill:#464F5D;" d="M388.414,145.655c-2.348,0.018-4.608-0.9-6.268-2.56c-0.777-0.856-1.404-1.845-1.854-2.913
		c-0.45-1.059-0.689-2.198-0.706-3.354c0.018-2.339,0.936-4.582,2.56-6.268c2.119-2.074,5.12-2.966,8.033-2.392
		c0.556,0.097,1.086,0.282,1.589,0.538c0.565,0.194,1.103,0.459,1.589,0.794c0.459,0.327,0.9,0.68,1.324,1.059
		c1.615,1.695,2.525,3.928,2.56,6.268c-0.018,1.156-0.256,2.295-0.706,3.354c-0.45,1.068-1.077,2.057-1.854,2.913
		c-0.856,0.803-1.845,1.457-2.913,1.942C390.7,145.461,389.561,145.673,388.414,145.655z"/>
</g>
<g>
	<path style="fill:#2980BA;" d="M238.345,48.552H105.931c-4.873,0-8.828-3.955-8.828-8.828s3.955-8.828,8.828-8.828h132.414
		c4.873,0,8.828,3.955,8.828,8.828S243.218,48.552,238.345,48.552z"/>
	<path style="fill:#2980BA;" d="M406.069,48.552H273.655c-4.873,0-8.828-3.955-8.828-8.828s3.955-8.828,8.828-8.828h132.414
		c4.873,0,8.828,3.955,8.828,8.828S410.942,48.552,406.069,48.552z"/>
</g>
<rect x="70.621" y="339.862" style="fill:#7F8C8D;" width="370.759" height="167.724"/>
<g>
	<path style="fill:#2C2F38;" d="M35.31,384c-1.156-0.018-2.295-0.256-3.354-0.706c-1.068-0.45-2.057-1.077-2.913-1.854
		c-0.777-0.856-1.404-1.845-1.854-2.913c-0.936-2.136-0.936-4.573,0-6.709c0.424-1.077,1.059-2.074,1.854-2.913
		c2.092-2.057,5.067-2.948,7.945-2.392c0.583,0.088,1.148,0.265,1.677,0.539c0.547,0.177,1.05,0.441,1.501,0.794
		c0.503,0.3,0.98,0.662,1.412,1.059c0.794,0.847,1.43,1.836,1.854,2.913c0.945,2.136,0.945,4.573,0,6.709
		c-0.45,1.068-1.077,2.057-1.854,2.913C39.918,383.1,37.658,384.018,35.31,384z"/>
	<path style="fill:#2C2F38;" d="M35.31,481.103c-1.148,0.018-2.286-0.194-3.354-0.618c-1.05-0.512-2.03-1.165-2.913-1.942
		c-0.777-0.856-1.404-1.845-1.854-2.913c-0.459-1.059-0.697-2.198-0.706-3.354c0.018-2.339,0.936-4.582,2.56-6.268
		c2.11-2.083,5.12-2.975,8.033-2.392c0.556,0.097,1.086,0.283,1.589,0.539c0.565,0.194,1.103,0.459,1.589,0.794
		c0.459,0.327,0.9,0.68,1.324,1.059c1.615,1.695,2.525,3.928,2.56,6.268c-0.018,1.156-0.256,2.295-0.706,3.354
		c-0.45,1.068-1.077,2.057-1.854,2.913c-0.856,0.803-1.845,1.457-2.913,1.942C37.597,480.909,36.458,481.121,35.31,481.103z"/>
	<path style="fill:#2C2F38;" d="M476.69,384c-2.348,0.018-4.608-0.9-6.268-2.56c-0.777-0.856-1.404-1.845-1.854-2.913
		c-0.494-1.051-0.733-2.198-0.706-3.354c0.009-1.156,0.247-2.295,0.706-3.354c0.803-2.216,2.551-3.964,4.767-4.767
		c2.145-0.892,4.564-0.892,6.709,0c2.216,0.803,3.964,2.551,4.767,4.767c0.45,1.059,0.697,2.198,0.706,3.354
		c0.026,1.156-0.212,2.304-0.706,3.354c-0.45,1.068-1.077,2.057-1.854,2.913c-0.856,0.777-1.845,1.404-2.913,1.854
		C478.985,383.744,477.846,383.982,476.69,384z"/>
	<path style="fill:#2C2F38;" d="M476.69,481.103c-1.148,0.018-2.286-0.194-3.354-0.618c-1.051-0.512-2.03-1.165-2.913-1.942
		c-0.777-0.856-1.404-1.845-1.854-2.913c-0.45-1.059-0.689-2.198-0.706-3.354c0.018-2.339,0.936-4.582,2.56-6.268
		c3.434-3.46,9.022-3.487,12.482-0.053c1.686,1.668,2.622,3.946,2.613,6.321c-0.018,1.156-0.256,2.295-0.706,3.354
		c-0.45,1.068-1.077,2.057-1.854,2.913C481.298,480.203,479.038,481.121,476.69,481.103z"/>
</g>
<g>
	<path style="fill:#464F5D;" d="M123.586,445.793c-2.348-0.044-4.599-0.989-6.268-2.648c-1.668-1.615-2.595-3.858-2.56-6.179
		c0.009-1.156,0.247-2.295,0.706-3.354c1.721-4.484,6.753-6.727,11.246-5.005c2.304,0.883,4.122,2.701,5.005,5.005
		c0.945,2.136,0.945,4.573,0,6.709C130.322,443.595,127.135,445.74,123.586,445.793z"/>
	<path style="fill:#464F5D;" d="M150.069,463.448c-4.829,0.044-8.783-3.831-8.828-8.66c-0.009-1.209,0.23-2.41,0.706-3.513
		c0.45-1.068,1.077-2.057,1.854-2.913c2.56-2.472,6.329-3.196,9.622-1.854c1.095,0.406,2.083,1.042,2.913,1.854
		c0.777,0.856,1.404,1.845,1.854,2.913c0.945,2.136,0.945,4.573,0,6.709c-0.45,1.068-1.077,2.057-1.854,2.913
		C154.677,462.548,152.417,463.466,150.069,463.448z"/>
	<path style="fill:#464F5D;" d="M123.586,481.103c-1.148,0.018-2.286-0.194-3.354-0.618c-1.068-0.477-2.057-1.13-2.913-1.942
		c-0.777-0.856-1.404-1.845-1.854-2.913c-0.45-1.059-0.689-2.198-0.706-3.354c0-4.873,3.955-8.828,8.828-8.828
		s8.828,3.955,8.828,8.828c-0.018,1.156-0.256,2.295-0.706,3.354c-0.45,1.068-1.077,2.057-1.854,2.913
		C128.194,480.203,125.934,481.121,123.586,481.103z"/>
	<path style="fill:#464F5D;" d="M176.552,445.793c-2.348-0.044-4.599-0.989-6.268-2.648c-1.668-1.615-2.595-3.858-2.56-6.179
		c0.009-1.156,0.247-2.295,0.706-3.354c0.424-1.077,1.059-2.074,1.854-2.913c0.856-0.777,1.845-1.404,2.913-1.854
		c3.293-1.333,7.062-0.609,9.622,1.854c0.794,0.847,1.43,1.836,1.854,2.913c0.45,1.059,0.689,2.198,0.706,3.354
		C185.344,441.829,181.416,445.758,176.552,445.793z"/>
	<path style="fill:#464F5D;" d="M203.034,463.448c-2.348,0.018-4.608-0.9-6.268-2.56c-0.777-0.856-1.404-1.845-1.854-2.913
		c-0.494-1.05-0.733-2.198-0.706-3.354c0.009-1.156,0.247-2.295,0.706-3.354c0.45-1.068,1.077-2.057,1.854-2.913
		c0.839-0.794,1.827-1.43,2.913-1.854c2.145-0.892,4.564-0.892,6.709,0c1.077,0.424,2.066,1.059,2.913,1.854
		c0.777,0.856,1.404,1.845,1.854,2.913c0.45,1.059,0.689,2.198,0.706,3.354c0.026,1.156-0.212,2.304-0.706,3.354
		c-0.45,1.068-1.077,2.057-1.854,2.913C207.642,462.548,205.383,463.466,203.034,463.448z"/>
	<path style="fill:#464F5D;" d="M176.552,481.103c-1.148,0.018-2.286-0.194-3.354-0.618c-1.068-0.477-2.057-1.13-2.913-1.942
		c-0.777-0.856-1.404-1.845-1.854-2.913c-0.45-1.059-0.689-2.198-0.706-3.354c0-4.873,3.955-8.828,8.828-8.828
		s8.828,3.955,8.828,8.828c0.009,2.348-0.918,4.599-2.56,6.268c-0.856,0.803-1.845,1.457-2.913,1.942
		C178.838,480.909,177.699,481.121,176.552,481.103z"/>
	<path style="fill:#464F5D;" d="M229.517,445.793c-2.366,0.026-4.634-0.927-6.268-2.648c-0.794-0.812-1.43-1.774-1.854-2.825
		c-0.936-2.136-0.936-4.573,0-6.709c0.45-1.068,1.077-2.057,1.854-2.913c3.513-3.328,9.022-3.328,12.535,0
		c0.794,0.847,1.43,1.836,1.854,2.913c0.45,1.059,0.689,2.198,0.706,3.354C238.31,441.829,234.381,445.758,229.517,445.793z"/>
	<path style="fill:#464F5D;" d="M256,463.448c-4.829,0.044-8.783-3.831-8.828-8.66c-0.009-1.209,0.23-2.41,0.706-3.513
		c0.424-1.077,1.059-2.074,1.854-2.913c0.83-0.821,1.818-1.448,2.913-1.854c3.293-1.342,7.071-0.618,9.622,1.854
		c0.777,0.856,1.404,1.845,1.854,2.913c0.945,2.136,0.945,4.573,0,6.709c-0.45,1.068-1.077,2.057-1.854,2.913
		C260.608,462.548,258.348,463.466,256,463.448z"/>
	<path style="fill:#464F5D;" d="M229.517,481.103c-1.148,0.018-2.286-0.194-3.354-0.618c-1.068-0.477-2.057-1.13-2.913-1.942
		c-0.777-0.856-1.404-1.845-1.854-2.913c-0.45-1.059-0.689-2.198-0.706-3.354c0.035-2.339,0.945-4.573,2.56-6.268
		c0.415-0.38,0.865-0.733,1.324-1.059c0.494-0.335,1.024-0.6,1.589-0.794c0.53-0.265,1.095-0.45,1.677-0.538
		c2.878-0.565,5.853,0.327,7.945,2.392c1.624,1.686,2.542,3.928,2.56,6.268c-0.018,1.156-0.256,2.295-0.706,3.354
		c-0.45,1.068-1.077,2.057-1.854,2.913c-0.874,0.777-1.863,1.43-2.913,1.942C231.804,480.909,230.665,481.121,229.517,481.103z"/>
	<path style="fill:#464F5D;" d="M282.483,445.793c-2.366,0.026-4.634-0.927-6.268-2.648c-0.794-0.812-1.43-1.774-1.854-2.825
		c-0.494-1.05-0.733-2.198-0.706-3.354c0.009-1.156,0.247-2.295,0.706-3.354c0.45-1.068,1.077-2.057,1.854-2.913
		c3.513-3.328,9.022-3.328,12.535,0c0.777,0.856,1.404,1.845,1.854,2.913c0.45,1.059,0.689,2.198,0.706,3.354
		C291.275,441.829,287.347,445.758,282.483,445.793z"/>
	<path style="fill:#464F5D;" d="M308.966,463.448c-1.156,0.026-2.313-0.212-3.354-0.706c-1.068-0.45-2.048-1.077-2.913-1.854
		c-2.525-2.525-3.257-6.338-1.854-9.622c0.803-2.216,2.551-3.964,4.767-4.767c2.145-0.892,4.564-0.892,6.709,0
		c2.216,0.803,3.964,2.551,4.767,4.767c1.898,4.44-0.159,9.578-4.59,11.476C311.375,463.219,310.175,463.457,308.966,463.448z"/>
	<path style="fill:#464F5D;" d="M282.483,481.103c-1.148,0.018-2.286-0.194-3.354-0.618c-1.068-0.477-2.057-1.13-2.913-1.942
		c-0.777-0.856-1.404-1.845-1.854-2.913c-0.45-1.059-0.689-2.198-0.706-3.354c0-4.873,3.955-8.828,8.828-8.828
		s8.828,3.955,8.828,8.828c-0.018,1.156-0.256,2.295-0.706,3.354c-0.45,1.068-1.077,2.057-1.854,2.913
		c-0.856,0.803-1.845,1.457-2.913,1.942C284.769,480.909,283.63,481.121,282.483,481.103z"/>
	<path style="fill:#464F5D;" d="M335.448,445.793c-2.366,0.026-4.634-0.927-6.268-2.648c-2.525-2.489-3.257-6.276-1.854-9.534
		c0.803-2.216,2.551-3.964,4.767-4.767c2.145-0.892,4.564-0.892,6.709,0c2.216,0.803,3.964,2.551,4.767,4.767
		c1.333,3.266,0.609,7.009-1.854,9.534C340.083,444.866,337.814,445.82,335.448,445.793z"/>
	<path style="fill:#464F5D;" d="M361.931,463.448c-4.829,0.044-8.783-3.831-8.828-8.66c-0.009-1.209,0.23-2.41,0.706-3.513
		c0.803-2.216,2.551-3.964,4.767-4.767c2.145-0.892,4.564-0.892,6.709,0c1.077,0.424,2.066,1.059,2.913,1.854
		c0.777,0.856,1.404,1.845,1.854,2.913c0.945,2.136,0.945,4.573,0,6.709c-0.45,1.068-1.077,2.057-1.854,2.913
		c-0.856,0.777-1.845,1.404-2.913,1.854C364.235,463.236,363.087,463.475,361.931,463.448z"/>
	<path style="fill:#464F5D;" d="M335.448,481.103c-1.148,0.018-2.286-0.194-3.354-0.618c-1.068-0.477-2.057-1.13-2.913-1.942
		c-0.777-0.856-1.404-1.845-1.854-2.913c-0.45-1.059-0.689-2.198-0.706-3.354c0.035-2.339,0.945-4.573,2.56-6.268
		c0.415-0.38,0.856-0.733,1.324-1.059c0.494-0.335,1.024-0.6,1.589-0.794c0.503-0.256,1.033-0.433,1.589-0.538
		c2.904-0.574,5.914,0.318,8.033,2.392c1.624,1.686,2.542,3.928,2.56,6.268c-0.018,1.156-0.256,2.295-0.706,3.354
		c-0.45,1.068-1.077,2.057-1.854,2.913c-0.874,0.777-1.863,1.43-2.913,1.942C337.735,480.909,336.596,481.121,335.448,481.103z"/>
	<path style="fill:#464F5D;" d="M388.414,445.793c-2.366,0.026-4.634-0.927-6.268-2.648c-2.525-2.489-3.257-6.276-1.854-9.534
		c0.803-2.216,2.551-3.964,4.767-4.767c2.145-0.892,4.564-0.892,6.709,0c2.216,0.803,3.964,2.551,4.767,4.767
		c0.45,1.059,0.697,2.198,0.706,3.354c0.026,1.156-0.212,2.304-0.706,3.354c-0.433,1.05-1.059,2.013-1.854,2.825
		C393.048,444.866,390.78,445.82,388.414,445.793z"/>
	<path style="fill:#464F5D;" d="M388.414,481.103c-2.348,0.018-4.608-0.9-6.268-2.56c-0.777-0.856-1.404-1.845-1.854-2.913
		c-0.45-1.059-0.689-2.198-0.706-3.354c0.018-2.339,0.936-4.582,2.56-6.268c2.119-2.074,5.12-2.966,8.033-2.392
		c0.556,0.097,1.086,0.283,1.589,0.538c0.565,0.194,1.103,0.459,1.589,0.794c0.459,0.327,0.9,0.68,1.324,1.059
		c1.615,1.695,2.525,3.928,2.56,6.268c-0.018,1.156-0.256,2.295-0.706,3.354c-0.45,1.068-1.077,2.057-1.854,2.913
		c-0.856,0.803-1.845,1.457-2.913,1.942C390.7,480.909,389.561,481.121,388.414,481.103z"/>
</g>
<g>
	<path style="fill:#2980BA;" d="M238.345,384H105.931c-4.873,0-8.828-3.955-8.828-8.828c0-4.873,3.955-8.828,8.828-8.828h132.414
		c4.873,0,8.828,3.955,8.828,8.828C247.172,380.045,243.218,384,238.345,384z"/>
	<path style="fill:#2980BA;" d="M406.069,384H273.655c-4.873,0-8.828-3.955-8.828-8.828c0-4.873,3.955-8.828,8.828-8.828h132.414
		c4.873,0,8.828,3.955,8.828,8.828C414.897,380.045,410.942,384,406.069,384z"/>
</g>
<g>
	<path style="fill:#3F5C6C;" d="M512,189.793v132.414c-0.026,9.737-7.918,17.629-17.655,17.655h-52.966V172.138h52.966
		C504.082,172.164,511.974,180.056,512,189.793z"/>
	<path style="fill:#3F5C6C;" d="M70.621,172.138v167.724H17.655C7.918,339.836,0.026,331.944,0,322.207V189.793
		c0.026-9.737,7.918-17.629,17.655-17.655H70.621z"/>
</g>
<rect x="70.621" y="172.138" style="fill:#95A5A5;" width="370.759" height="167.724"/>
<g>
	<path style="fill:#2C2F38;" d="M35.31,216.276c-1.156-0.018-2.295-0.256-3.354-0.706c-1.068-0.45-2.057-1.077-2.913-1.854
		c-0.777-0.856-1.404-1.845-1.854-2.913c-0.936-2.136-0.936-4.573,0-6.709c0.424-1.077,1.059-2.074,1.854-2.913
		c2.092-2.057,5.067-2.948,7.945-2.392c0.583,0.088,1.148,0.265,1.677,0.538c0.547,0.177,1.05,0.441,1.501,0.794
		c0.503,0.3,0.98,0.662,1.412,1.059c0.794,0.847,1.43,1.836,1.854,2.913c0.945,2.136,0.945,4.573,0,6.709
		c-0.45,1.068-1.077,2.057-1.854,2.913C39.918,215.375,37.658,216.294,35.31,216.276z"/>
	<path style="fill:#2C2F38;" d="M35.31,313.379c-1.148,0.018-2.286-0.194-3.354-0.618c-1.05-0.512-2.03-1.165-2.913-1.942
		c-0.777-0.856-1.404-1.845-1.854-2.913c-0.459-1.059-0.697-2.198-0.706-3.354c0.018-2.339,0.936-4.582,2.56-6.268
		c2.11-2.083,5.12-2.975,8.033-2.392c0.556,0.097,1.086,0.283,1.589,0.538c0.565,0.194,1.103,0.459,1.589,0.794
		c0.459,0.327,0.9,0.68,1.324,1.059c1.615,1.695,2.525,3.928,2.56,6.268c-0.018,1.156-0.256,2.295-0.706,3.354
		c-0.45,1.068-1.077,2.057-1.854,2.913c-0.856,0.803-1.845,1.457-2.913,1.942C37.597,313.185,36.458,313.397,35.31,313.379z"/>
	<path style="fill:#2C2F38;" d="M476.69,216.276c-2.348,0.018-4.608-0.9-6.268-2.56c-0.777-0.856-1.404-1.845-1.854-2.913
		c-0.494-1.05-0.733-2.198-0.706-3.354c0.009-1.156,0.247-2.295,0.706-3.354c0.803-2.216,2.551-3.964,4.767-4.767
		c2.145-0.892,4.564-0.892,6.709,0c2.216,0.803,3.964,2.551,4.767,4.767c0.45,1.059,0.697,2.198,0.706,3.354
		c0.026,1.156-0.212,2.304-0.706,3.354c-0.45,1.068-1.077,2.057-1.854,2.913c-0.856,0.777-1.845,1.404-2.913,1.854
		C478.985,216.02,477.846,216.258,476.69,216.276z"/>
	<path style="fill:#2C2F38;" d="M476.69,313.379c-1.148,0.018-2.286-0.194-3.354-0.618c-1.051-0.512-2.03-1.165-2.913-1.942
		c-0.777-0.856-1.404-1.845-1.854-2.913c-0.45-1.059-0.689-2.198-0.706-3.354c0.018-2.339,0.936-4.582,2.56-6.268
		c3.434-3.46,9.022-3.487,12.482-0.053c1.686,1.668,2.622,3.946,2.613,6.321c-0.018,1.156-0.256,2.295-0.706,3.354
		c-0.45,1.068-1.077,2.057-1.854,2.913C481.298,312.479,479.038,313.397,476.69,313.379z"/>
</g>
<g>
	<path style="fill:#464F5D;" d="M123.586,278.069c-2.348-0.044-4.599-0.989-6.268-2.648c-1.668-1.615-2.595-3.858-2.56-6.179
		c0.009-1.156,0.247-2.295,0.706-3.354c1.721-4.484,6.753-6.727,11.246-5.005c2.304,0.883,4.122,2.701,5.005,5.005
		c0.945,2.136,0.945,4.573,0,6.709C130.322,275.871,127.135,278.016,123.586,278.069z"/>
	<path style="fill:#464F5D;" d="M150.069,295.724c-4.829,0.044-8.783-3.831-8.828-8.66c-0.009-1.209,0.23-2.41,0.706-3.513
		c0.45-1.068,1.077-2.057,1.854-2.913c2.56-2.472,6.329-3.196,9.622-1.854c1.095,0.406,2.083,1.042,2.913,1.854
		c0.777,0.856,1.404,1.845,1.854,2.913c0.945,2.136,0.945,4.573,0,6.709c-0.45,1.068-1.077,2.057-1.854,2.913
		C154.677,294.824,152.417,295.742,150.069,295.724z"/>
	<path style="fill:#464F5D;" d="M123.586,313.379c-1.148,0.018-2.286-0.194-3.354-0.618c-1.068-0.477-2.057-1.13-2.913-1.942
		c-0.777-0.856-1.404-1.845-1.854-2.913c-0.45-1.059-0.689-2.198-0.706-3.354c0-4.873,3.955-8.828,8.828-8.828
		s8.828,3.955,8.828,8.828c-0.018,1.156-0.256,2.295-0.706,3.354c-0.45,1.068-1.077,2.057-1.854,2.913
		C128.194,312.479,125.934,313.397,123.586,313.379z"/>
	<path style="fill:#464F5D;" d="M176.552,278.069c-2.348-0.044-4.599-0.989-6.268-2.648c-1.668-1.615-2.595-3.858-2.56-6.179
		c0.009-1.156,0.247-2.295,0.706-3.354c0.424-1.077,1.059-2.074,1.854-2.913c0.856-0.777,1.845-1.404,2.913-1.854
		c3.293-1.333,7.062-0.609,9.622,1.854c0.794,0.847,1.43,1.836,1.854,2.913c0.45,1.059,0.689,2.198,0.706,3.354
		C185.344,274.105,181.416,278.034,176.552,278.069z"/>
	<path style="fill:#464F5D;" d="M203.034,295.724c-2.348,0.018-4.608-0.9-6.268-2.56c-0.777-0.856-1.404-1.845-1.854-2.913
		c-0.494-1.05-0.733-2.198-0.706-3.354c0.009-1.156,0.247-2.295,0.706-3.354c0.45-1.068,1.077-2.057,1.854-2.913
		c0.839-0.794,1.827-1.43,2.913-1.854c2.145-0.892,4.564-0.892,6.709,0c1.077,0.424,2.066,1.059,2.913,1.854
		c0.777,0.856,1.404,1.845,1.854,2.913c0.45,1.059,0.689,2.198,0.706,3.354c0.026,1.156-0.212,2.304-0.706,3.354
		c-0.45,1.068-1.077,2.057-1.854,2.913C207.642,294.824,205.383,295.742,203.034,295.724z"/>
	<path style="fill:#464F5D;" d="M176.552,313.379c-1.148,0.018-2.286-0.194-3.354-0.618c-1.068-0.477-2.057-1.13-2.913-1.942
		c-0.777-0.856-1.404-1.845-1.854-2.913c-0.45-1.059-0.689-2.198-0.706-3.354c0-4.873,3.955-8.828,8.828-8.828
		s8.828,3.955,8.828,8.828c0.009,2.348-0.918,4.599-2.56,6.268c-0.856,0.803-1.845,1.457-2.913,1.942
		C178.838,313.185,177.699,313.397,176.552,313.379z"/>
	<path style="fill:#464F5D;" d="M229.517,278.069c-2.366,0.026-4.634-0.927-6.268-2.648c-0.794-0.812-1.43-1.774-1.854-2.825
		c-0.936-2.136-0.936-4.573,0-6.709c0.45-1.068,1.077-2.057,1.854-2.913c3.513-3.328,9.022-3.328,12.535,0
		c0.794,0.847,1.43,1.836,1.854,2.913c0.45,1.059,0.689,2.198,0.706,3.354C238.31,274.105,234.381,278.034,229.517,278.069z"/>
	<path style="fill:#464F5D;" d="M256,295.724c-4.829,0.044-8.783-3.831-8.828-8.66c-0.009-1.209,0.23-2.41,0.706-3.513
		c0.424-1.077,1.059-2.074,1.854-2.913c0.83-0.821,1.818-1.448,2.913-1.854c3.293-1.342,7.071-0.618,9.622,1.854
		c0.777,0.856,1.404,1.845,1.854,2.913c0.945,2.136,0.945,4.573,0,6.709c-0.45,1.068-1.077,2.057-1.854,2.913
		C260.608,294.824,258.348,295.742,256,295.724z"/>
	<path style="fill:#464F5D;" d="M229.517,313.379c-1.148,0.018-2.286-0.194-3.354-0.618c-1.068-0.477-2.057-1.13-2.913-1.942
		c-0.777-0.856-1.404-1.845-1.854-2.913c-0.45-1.059-0.689-2.198-0.706-3.354c0.035-2.339,0.945-4.573,2.56-6.268
		c0.415-0.38,0.865-0.733,1.324-1.059c0.494-0.335,1.024-0.6,1.589-0.794c0.53-0.265,1.095-0.45,1.677-0.538
		c2.878-0.565,5.853,0.327,7.945,2.392c1.624,1.686,2.542,3.928,2.56,6.268c-0.018,1.156-0.256,2.295-0.706,3.354
		c-0.45,1.068-1.077,2.057-1.854,2.913c-0.874,0.777-1.863,1.43-2.913,1.942C231.804,313.185,230.665,313.397,229.517,313.379z"/>
	<path style="fill:#464F5D;" d="M282.483,278.069c-2.366,0.026-4.634-0.927-6.268-2.648c-0.794-0.812-1.43-1.774-1.854-2.825
		c-0.494-1.05-0.733-2.198-0.706-3.354c0.009-1.156,0.247-2.295,0.706-3.354c0.45-1.068,1.077-2.057,1.854-2.913
		c3.513-3.328,9.022-3.328,12.535,0c0.777,0.856,1.404,1.845,1.854,2.913c0.45,1.059,0.689,2.198,0.706,3.354
		C291.275,274.105,287.347,278.034,282.483,278.069z"/>
	<path style="fill:#464F5D;" d="M308.966,295.724c-1.156,0.026-2.313-0.212-3.354-0.706c-1.068-0.45-2.048-1.077-2.913-1.854
		c-2.525-2.525-3.257-6.338-1.854-9.622c0.803-2.216,2.551-3.964,4.767-4.767c2.145-0.892,4.564-0.892,6.709,0
		c2.216,0.803,3.964,2.551,4.767,4.767c1.898,4.44-0.159,9.578-4.59,11.476C311.375,295.495,310.175,295.733,308.966,295.724z"/>
	<path style="fill:#464F5D;" d="M282.483,313.379c-1.148,0.018-2.286-0.194-3.354-0.618c-1.068-0.477-2.057-1.13-2.913-1.942
		c-0.777-0.856-1.404-1.845-1.854-2.913c-0.45-1.059-0.689-2.198-0.706-3.354c0-4.873,3.955-8.828,8.828-8.828
		s8.828,3.955,8.828,8.828c-0.018,1.156-0.256,2.295-0.706,3.354c-0.45,1.068-1.077,2.057-1.854,2.913
		c-0.856,0.803-1.845,1.457-2.913,1.942C284.769,313.185,283.63,313.397,282.483,313.379z"/>
	<path style="fill:#464F5D;" d="M335.448,278.069c-2.366,0.026-4.634-0.927-6.268-2.648c-2.525-2.489-3.257-6.276-1.854-9.534
		c0.803-2.216,2.551-3.964,4.767-4.767c2.145-0.892,4.564-0.892,6.709,0c2.216,0.803,3.964,2.551,4.767,4.767
		c1.333,3.266,0.609,7.009-1.854,9.534C340.083,277.142,337.814,278.095,335.448,278.069z"/>
	<path style="fill:#464F5D;" d="M361.931,295.724c-4.829,0.044-8.783-3.831-8.828-8.66c-0.009-1.209,0.23-2.41,0.706-3.513
		c0.803-2.216,2.551-3.964,4.767-4.767c2.145-0.892,4.564-0.892,6.709,0c1.077,0.424,2.066,1.059,2.913,1.854
		c0.777,0.856,1.404,1.845,1.854,2.913c0.945,2.136,0.945,4.573,0,6.709c-0.45,1.068-1.077,2.057-1.854,2.913
		c-0.856,0.777-1.845,1.404-2.913,1.854C364.235,295.512,363.087,295.751,361.931,295.724z"/>
	<path style="fill:#464F5D;" d="M335.448,313.379c-1.148,0.018-2.286-0.194-3.354-0.618c-1.068-0.477-2.057-1.13-2.913-1.942
		c-0.777-0.856-1.404-1.845-1.854-2.913c-0.45-1.059-0.689-2.198-0.706-3.354c0.035-2.339,0.945-4.573,2.56-6.268
		c0.415-0.38,0.856-0.733,1.324-1.059c0.494-0.335,1.024-0.6,1.589-0.794c0.503-0.256,1.033-0.433,1.589-0.538
		c2.904-0.574,5.914,0.318,8.033,2.392c1.624,1.686,2.542,3.928,2.56,6.268c-0.018,1.156-0.256,2.295-0.706,3.354
		c-0.45,1.068-1.077,2.057-1.854,2.913c-0.874,0.777-1.863,1.43-2.913,1.942C337.735,313.185,336.596,313.397,335.448,313.379z"/>
	<path style="fill:#464F5D;" d="M388.414,278.069c-2.366,0.026-4.634-0.927-6.268-2.648c-2.525-2.489-3.257-6.276-1.854-9.534
		c0.803-2.216,2.551-3.964,4.767-4.767c2.145-0.892,4.564-0.892,6.709,0c2.216,0.803,3.964,2.551,4.767,4.767
		c0.45,1.059,0.697,2.198,0.706,3.354c0.026,1.156-0.212,2.304-0.706,3.354c-0.433,1.05-1.059,2.013-1.854,2.825
		C393.048,277.142,390.78,278.095,388.414,278.069z"/>
	<path style="fill:#464F5D;" d="M388.414,313.379c-2.348,0.018-4.608-0.9-6.268-2.56c-0.777-0.856-1.404-1.845-1.854-2.913
		c-0.45-1.059-0.689-2.198-0.706-3.354c0.018-2.339,0.936-4.582,2.56-6.268c2.119-2.074,5.12-2.966,8.033-2.392
		c0.556,0.097,1.086,0.283,1.589,0.538c0.565,0.194,1.103,0.459,1.589,0.794c0.459,0.327,0.9,0.68,1.324,1.059
		c1.615,1.695,2.525,3.928,2.56,6.268c-0.018,1.156-0.256,2.295-0.706,3.354c-0.45,1.068-1.077,2.057-1.854,2.913
		c-0.856,0.803-1.845,1.457-2.913,1.942C390.7,313.185,389.561,313.397,388.414,313.379z"/>
</g>
<g>
	<path style="fill:#2980BA;" d="M238.345,216.276H105.931c-4.873,0-8.828-3.955-8.828-8.828c0-4.873,3.955-8.828,8.828-8.828
		h132.414c4.873,0,8.828,3.955,8.828,8.828C247.172,212.321,243.218,216.276,238.345,216.276z"/>
	<path style="fill:#2980BA;" d="M406.069,216.276H273.655c-4.873,0-8.828-3.955-8.828-8.828c0-4.873,3.955-8.828,8.828-8.828
		h132.414c4.873,0,8.828,3.955,8.828,8.828C414.897,212.321,410.942,216.276,406.069,216.276z"/>
</g>
<g>
</g>
<g>
</g>
<g>
</g>
<g>
</g>
<g>
</g>
<g>
</g>
<g>
</g>
<g>
</g>
<g>
</g>
<g>
</g>
<g>
</g>
<g>
</g>
<g>
</g>
<g>
</g>
<g>
</g>
</svg>
